<svg xmlns="http://www.w3.org/2000/svg" width="32" height="32" viewBox="0 0 32 32" fill="none">
  <!-- S Glyph (exact font outline) -->
  <path d="M 6.1 28.1 L 6.1 24.7 C 6.7 25.2 7.4 25.6 8.1 25.9 C 8.8 26.1 9.6 26.3 10.3 26.3 C 10.7 26.3 11.1 26.2 11.4 26.2 C 11.8 26.1 12 26 12.3 25.8 C 12.5 25.7 12.6 25.5 12.7 25.3 C 12.9 25.2 12.9 24.9 12.9 24.7 C 12.9 24.4 12.8 24.2 12.6 23.9 C 12.5 23.7 12.2 23.5 11.9 23.3 C 11.6 23.1 11.3 22.9 10.9 22.7 C 10.5 22.5 10 22.3 9.6 22.1 C 8.4 21.6 7.5 21 6.9 20.3 C 6.3 19.6 6 18.7 6 17.7 C 6 16.9 6.1 16.2 6.5 15.6 C 6.8 15 7.2 14.5 7.8 14.2 C 8.3 13.8 9 13.5 9.7 13.3 C 10.4 13.2 11.2 13.1 12 13.1 C 12.8 13.1 13.5 13.1 14.2 13.2 C 14.8 13.3 15.4 13.5 15.9 13.7 L 15.9 16.9 C 15.6 16.7 15.3 16.5 15 16.4 C 14.7 16.3 14.4 16.2 14.1 16.1 C 13.8 16 13.5 15.9 13.1 15.9 C 12.8 15.8 12.5 15.8 12.2 15.8 C 11.8 15.8 11.5 15.8 11.2 15.9 C 10.8 16 10.6 16.1 10.3 16.2 C 10.1 16.4 9.9 16.5 9.8 16.7 C 9.7 16.9 9.6 17.1 9.6 17.4 C 9.6 17.6 9.7 17.9 9.8 18.1 C 10 18.3 10.2 18.5 10.4 18.6 C 10.7 18.8 11 19 11.3 19.2 C 11.7 19.3 12.1 19.5 12.6 19.7 C 13.2 20 13.7 20.2 14.2 20.5 C 14.7 20.8 15.1 21.2 15.5 21.5 C 15.8 21.9 16.1 22.3 16.3 22.8 C 16.5 23.2 16.6 23.8 16.6 24.4 C 16.6 25.3 16.4 26 16.1 26.6 C 15.7 27.2 15.3 27.6 14.7 28 C 14.2 28.4 13.5 28.6 12.8 28.8 C 12.1 28.9 11.3 29 10.4 29 C 9.6 29 8.8 28.9 8 28.8 C 7.3 28.7 6.6 28.4 6.1 28.1 Z" fill="#0A0A0A"/>

  <!-- Green Square Dot -->
  <rect x="19" y="21" width="5" height="5" rx="1" fill="#34D399"/>
</svg>
