<svg xmlns="http://www.w3.org/2000/svg" width="1024" height="1024" viewBox="0 0 1024 1024" fill="none">
  <defs>
    <linearGradient id="bg" x1="0" y1="0" x2="1" y2="1">
      <stop offset="0%" stop-color="#FFFFFF"/>
      <stop offset="100%" stop-color="#F8FAFC"/>
    </linearGradient>
    <filter id="shadow" x="-20%" y="-20%" width="140%" height="140%">
      <feDropShadow dx="0" dy="8" stdDeviation="16" flood-color="#000000" flood-opacity="0.12"/>
    </filter>
  </defs>

  <rect x="64" y="64" width="896" height="896" rx="224" fill="url(#bg)" filter="url(#shadow)"/>
  <rect x="64" y="64" width="896" height="896" rx="224" fill="none" stroke="#0A0A0A" stroke-opacity="0.06" stroke-width="4"/>

  <g transform="translate(52,-116)">
    <path d="M 286.8 809.3 L 286.8 721.8 C 302.7 735.1 319.9 745 338.5 751.7 C 357.1 758.4 375.8 761.7 394.8 761.7 C 405.9 761.7 415.6 760.7 423.9 758.7 C 432.2 756.7 439.1 753.9 444.7 750.3 C 450.3 746.8 454.4 742.6 457.1 737.8 C 459.9 732.9 461.2 727.7 461.2 722 C 461.2 714.4 459.1 707.5 454.7 701.5 C 450.3 695.5 444.3 689.9 436.8 684.8 C 429.2 679.7 420.2 674.8 409.8 670.1 C 399.5 665.3 388.2 660.5 376.2 655.6 C 345.6 642.8 322.8 627.2 307.7 608.8 C 292.7 590.4 285.2 568.2 285.2 542.1 C 285.2 521.7 289.3 504.1 297.5 489.5 C 305.7 474.8 316.8 462.7 331 453.2 C 345.1 443.8 361.4 436.8 380 432.3 C 398.6 427.9 418.3 425.6 439.1 425.6 C 459.5 425.6 477.6 426.9 493.4 429.3 C 509.1 431.8 523.7 435.6 537 440.7 L 537 522.4 C 530.4 517.9 523.3 513.9 515.5 510.4 C 507.8 506.9 499.8 504.1 491.6 501.8 C 483.4 499.5 475.2 497.8 467.1 496.7 C 459 495.6 451.3 495.1 444 495.1 C 434 495.1 424.9 496 416.7 497.9 C 408.5 499.9 401.5 502.6 395.9 506 C 390.2 509.5 385.9 513.6 382.8 518.5 C 379.7 523.3 378.1 528.7 378.1 534.7 C 378.1 541.3 379.9 547.2 383.3 552.4 C 386.8 557.6 391.7 562.5 398.1 567.1 C 404.5 571.8 412.2 576.3 421.3 580.8 C 430.4 585.3 440.7 589.9 452.2 594.6 C 467.9 601.2 482 608.1 494.5 615.5 C 507 622.9 517.7 631.2 526.6 640.5 C 535.5 649.8 542.4 660.5 547.1 672.4 C 551.8 684.3 554.2 698.2 554.2 714.1 C 554.2 736 550.1 754.3 541.8 769.2 C 533.5 784.1 522.2 796.1 508 805.3 C 493.8 814.5 477.2 821.1 458.4 825.1 C 439.5 829.1 419.6 831.1 398.6 831.1 C 377.1 831.1 356.7 829.3 337.2 825.7 C 317.8 822 301 816.5 286.8 809.3 Z" fill="#0A0A0A"/>
  </g>

  <rect x="630" y="540" width="60" height="60" rx="12" fill="#34D399"/>
</svg>
