<svg width="180" height="48" viewBox="0 0 180 48" fill="none" xmlns="http://www.w3.org/2000/svg">
  <!-- "Seizn" (Segoe UI Bold, exact glyph outlines) -->
  <path d="M 9.1 35.3 L 9.1 31.5 C 9.8 32.1 10.6 32.5 11.4 32.8 C 12.2 33.1 13 33.2 13.8 33.2 C 14.3 33.2 14.7 33.2 15 33.1 C 15.4 33 15.7 32.9 15.9 32.7 C 16.2 32.6 16.3 32.4 16.4 32.2 C 16.6 32 16.6 31.8 16.6 31.5 C 16.6 31.2 16.5 30.9 16.3 30.6 C 16.2 30.4 15.9 30.1 15.6 29.9 C 15.3 29.7 14.9 29.5 14.4 29.3 C 14 29.1 13.5 28.9 13 28.7 C 11.7 28.1 10.7 27.5 10 26.7 C 9.4 25.9 9.1 24.9 9.1 23.8 C 9.1 22.9 9.3 22.2 9.6 21.5 C 10 20.9 10.4 20.4 11 20 C 11.6 19.6 12.3 19.3 13.1 19.1 C 13.9 18.9 14.8 18.8 15.7 18.8 C 16.6 18.8 17.3 18.9 18 19 C 18.7 19.1 19.3 19.2 19.9 19.5 L 19.9 23 C 19.6 22.8 19.3 22.6 19 22.4 C 18.6 22.3 18.3 22.2 17.9 22.1 C 17.6 22 17.2 21.9 16.9 21.9 C 16.5 21.8 16.2 21.8 15.9 21.8 C 15.5 21.8 15.1 21.8 14.7 21.9 C 14.4 22 14.1 22.1 13.8 22.3 C 13.6 22.4 13.4 22.6 13.3 22.8 C 13.1 23 13.1 23.2 13.1 23.5 C 13.1 23.8 13.1 24 13.3 24.2 C 13.4 24.5 13.6 24.7 13.9 24.9 C 14.2 25.1 14.5 25.3 14.9 25.5 C 15.3 25.7 15.7 25.9 16.2 26.1 C 16.9 26.3 17.5 26.6 18 27 C 18.6 27.3 19 27.6 19.4 28 C 19.8 28.4 20.1 28.9 20.3 29.4 C 20.5 29.9 20.6 30.5 20.6 31.2 C 20.6 32.1 20.4 32.9 20.1 33.5 C 19.7 34.2 19.2 34.7 18.6 35.1 C 18 35.5 17.3 35.8 16.5 35.9 C 15.7 36.1 14.8 36.2 13.9 36.2 C 13 36.2 12.1 36.1 11.3 36 C 10.5 35.8 9.8 35.6 9.1 35.3 Z M 33.8 31 L 26 31 C 26.1 32.7 27.2 33.6 29.3 33.6 C 30.6 33.6 31.7 33.3 32.7 32.6 L 32.7 35.3 C 31.6 35.9 30.2 36.2 28.4 36.2 C 26.5 36.2 25 35.7 23.9 34.6 C 22.8 33.5 22.3 32 22.3 30.1 C 22.3 28.1 22.9 26.5 24 25.4 C 25.2 24.2 26.6 23.6 28.3 23.6 C 30 23.6 31.4 24.1 32.4 25.2 C 33.3 26.2 33.8 27.6 33.8 29.4 Z M 30.4 28.7 C 30.4 27 29.7 26.1 28.3 26.1 C 27.7 26.1 27.2 26.3 26.7 26.8 C 26.3 27.3 26 27.9 25.9 28.7 Z M 37.9 22 C 37.2 22 36.7 21.8 36.3 21.4 C 35.9 21.1 35.7 20.6 35.7 20.1 C 35.7 19.5 35.9 19.1 36.3 18.7 C 36.7 18.4 37.2 18.2 37.9 18.2 C 38.5 18.2 39 18.4 39.4 18.7 C 39.8 19.1 40 19.5 40 20.1 C 40 20.6 39.8 21.1 39.4 21.5 C 39 21.8 38.5 22 37.9 22 Z M 39.7 35.9 L 36 35.9 L 36 23.9 L 39.7 23.9 Z M 52.3 35.9 L 41.6 35.9 L 41.6 34.4 L 47.6 26.6 L 42.1 26.6 L 42.1 23.9 L 52.3 23.9 L 52.3 25.7 L 46.6 33.2 L 52.3 33.2 Z M 65.9 35.9 L 62.2 35.9 L 62.2 29.2 C 62.2 27.4 61.5 26.4 60.2 26.4 C 59.6 26.4 59.1 26.7 58.6 27.2 C 58.2 27.7 58 28.3 58 29.1 L 58 35.9 L 54.3 35.9 L 54.3 23.9 L 58 23.9 L 58 25.8 L 58.1 25.8 C 58.9 24.3 60.2 23.6 61.9 23.6 C 64.6 23.6 65.9 25.3 65.9 28.6 Z" fill="#0A0A0A"/>

  <!-- Green Square Dot -->
  <rect x="69" y="33" width="4.5" height="4.5" rx="1" fill="#34D399"/>
</svg>
