<svg width="1200" height="630" viewBox="0 0 1200 630" fill="none" xmlns="http://www.w3.org/2000/svg">
  <defs>
    <linearGradient id="bgGrad" x1="0%" y1="0%" x2="100%" y2="100%">
      <stop offset="0%" style="stop-color:#0A0A0A"/>
      <stop offset="100%" style="stop-color:#1a1a2e"/>
    </linearGradient>
    <linearGradient id="accentGrad" x1="0%" y1="0%" x2="100%" y2="100%">
      <stop offset="0%" style="stop-color:#10B981"/>
      <stop offset="100%" style="stop-color:#059669"/>
    </linearGradient>
  </defs>

  <!-- Background -->
  <rect width="1200" height="630" fill="url(#bgGrad)"/>

  <!-- Decorative elements -->
  <circle cx="1100" cy="100" r="200" fill="#10B981" opacity="0.05"/>
  <circle cx="100" cy="530" r="150" fill="#10B981" opacity="0.05"/>

  <!-- Logo Icon -->
  <g transform="translate(540, 180)">
    <rect width="120" height="120" rx="27" fill="#0A0A0A" stroke="url(#accentGrad)" stroke-width="2"/>
    <path d="M37.5 46.5 C37.5 37.5, 45 33, 60 33 L72 33 C87 33, 94.5 37.5, 94.5 46.5 C94.5 55.5, 87 60, 72 60 L48 60 C33 60, 25.5 64.5, 25.5 73.5 C25.5 82.5, 33 87, 48 87 L60 87 C75 87, 82.5 91.5, 82.5 100.5"
          stroke="url(#accentGrad)"
          stroke-width="10"
          stroke-linecap="round"
          fill="none"/>
  </g>

  <!-- Title -->
  <text x="600" y="360" font-family="system-ui, -apple-system, sans-serif" font-size="72" font-weight="700" fill="white" text-anchor="middle">Seizn</text>

  <!-- Tagline -->
  <text x="600" y="420" font-family="system-ui, -apple-system, sans-serif" font-size="30" font-weight="500" fill="#A5B4FC" text-anchor="middle">Memory for AI NPCs</text>

  <!-- Subtitle -->
  <text x="600" y="472" font-family="system-ui, -apple-system, sans-serif" font-size="22" font-weight="400" fill="#9CA3AF" text-anchor="middle">Plug into Inworld, Convai, or your own LLM</text>

  <!-- Supporting line -->
  <text x="600" y="515" font-family="system-ui, -apple-system, sans-serif" font-size="20" font-weight="400" fill="#6B7280" text-anchor="middle">Persistent memory, relationships, and faction graphs</text>

  <!-- URL -->
  <text x="600" y="580" font-family="system-ui, -apple-system, sans-serif" font-size="18" font-weight="500" fill="url(#accentGrad)" text-anchor="middle">www.seizn.com</text>
</svg>
