<svg xmlns="http://www.w3.org/2000/svg" width="1024" height="1024" viewBox="0 0 1024 1024">
  <defs>
<linearGradient id="stroke" x1="0" y1="0" x2="1" y2="0">
      <stop offset="0%" stop-color="#2DD4BF"/>
      <stop offset="100%" stop-color="#60A5FA"/>
    </linearGradient>
<linearGradient id="bg" x1="0" y1="0" x2="1" y2="1">
          <stop offset="0%" stop-color="#0B122A"/>
          <stop offset="100%" stop-color="#050814"/>
        </linearGradient>
<radialGradient id="shine" cx="0.25" cy="0.20" r="0.9">
          <stop offset="0%" stop-color="#FFFFFF" stop-opacity="0.14"/>
          <stop offset="65%" stop-color="#FFFFFF" stop-opacity="0.0"/>
        </radialGradient>
<filter id="shadow" x="-20%" y="-20%" width="140%" height="140%">
          <feDropShadow dx="0" dy="10" stdDeviation="18" flood-color="#000000" flood-opacity="0.28"/>
        </filter>
<filter id="glow" x="-50%" y="-50%" width="200%" height="200%">
      <feGaussianBlur stdDeviation="10" result="blur"/>
      <feMerge>
        <feMergeNode in="blur"/>
      </feMerge>
    </filter>
</defs>
  <rect x="0" y="0" width="1024" height="1024" fill="#050814"/>
  <g transform="translate(252.0,96.0) scale(0.5078125)">
    <rect x="64.0" y="64.0" width="896.0" height="896.0" rx="256.0" fill="url(#bg)" filter="url(#shadow)"/>
<rect x="64.0" y="64.0" width="896.0" height="896.0" rx="256.0" fill="url(#shine)"/>
<rect x="64.0" y="64.0" width="896.0" height="896.0" rx="256.0" fill="none" stroke="#FFFFFF" stroke-opacity="0.1" stroke-width="6"/>
<path d="M 296.0 328.0 H 728.0 L 296.0 696.0 H 728.0" fill="none" stroke="url(#stroke)" stroke-width="122.0" stroke-linecap="round" stroke-linejoin="round" opacity="0.22" filter="url(#glow)"/>
<path d="M 296.0 328.0 H 728.0 L 296.0 696.0 H 728.0" fill="none" stroke="url(#stroke)" stroke-width="96.0" stroke-linecap="round" stroke-linejoin="round"/>
<circle cx="296.0" cy="328.0" r="42.0" fill="none" stroke="url(#stroke)" stroke-width="14.0" opacity="0.18" filter="url(#glow)"/>
<circle cx="296.0" cy="328.0" r="32.0" fill="#0B122A" stroke="url(#stroke)" stroke-width="14.0"/>
<circle cx="728.0" cy="328.0" r="42.0" fill="none" stroke="url(#stroke)" stroke-width="14.0" opacity="0.18" filter="url(#glow)"/>
<circle cx="728.0" cy="328.0" r="32.0" fill="#0B122A" stroke="url(#stroke)" stroke-width="14.0"/>
<circle cx="296.0" cy="696.0" r="42.0" fill="none" stroke="url(#stroke)" stroke-width="14.0" opacity="0.18" filter="url(#glow)"/>
<circle cx="296.0" cy="696.0" r="32.0" fill="#0B122A" stroke="url(#stroke)" stroke-width="14.0"/>
<circle cx="728.0" cy="696.0" r="42.0" fill="none" stroke="url(#stroke)" stroke-width="14.0" opacity="0.18" filter="url(#glow)"/>
<circle cx="728.0" cy="696.0" r="32.0" fill="#0B122A" stroke="url(#stroke)" stroke-width="14.0"/>
<circle cx="512.0" cy="512.0" r="34.0" fill="none" stroke="url(#stroke)" stroke-width="8.0" opacity="0.55"/>
<circle cx="512.0" cy="512.0" r="16.0" fill="url(#stroke)"/>
  </g>
  <text x="512" y="720" text-anchor="middle" font-family="Inter, ui-sans-serif, system-ui, -apple-system, Segoe UI, Roboto, Helvetica, Arial" font-size="92" font-weight="700" letter-spacing="14" fill="#F5F7FF">SEIZN</text>
  <text x="512" y="800" text-anchor="middle" font-family="Inter, ui-sans-serif, system-ui, -apple-system, Segoe UI, Roboto, Helvetica, Arial" font-size="30" font-weight="500" fill="rgba(245,247,255,0.72)">Search you can debug</text>
</svg>